<?xml version="1.0" encoding="utf-8"?>
<!-- Generator: Adobe Illustrator 16.0.0, SVG Export Plug-In . SVG Version: 6.00 Build 0)  -->
<!DOCTYPE svg PUBLIC "-//W3C//DTD SVG 1.1//EN" "http://www.w3.org/Graphics/SVG/1.1/DTD/svg11.dtd">
<svg version="1.1" id="Layer_1" xmlns="http://www.w3.org/2000/svg" xmlns:xlink="http://www.w3.org/1999/xlink" x="0px" y="0px"
	 width="720px" height="720px" viewBox="0 0 720 720" enable-background="new 0 0 720 720" xml:space="preserve">
<g>
	<path fill="#414042" d="M37.102,350.084H26.385v-16.156h10.717v-6.074c0-9.438,2.398-16.477,6.877-20.953
		c4.479-4.48,10.717-6.719,19.033-6.719c6.717,0,11.355,0.961,15.674,2.238v16.316c-3.838-1.281-7.197-2.082-11.355-2.082
		c-7.357,0-11.195,4-11.195,12.797v4.637h22.391v15.996h-22.07V417.9H37.102V350.084z"/>
	<path fill="#414042" d="M91.955,387.189v-53.738h19.354v47.98c0,13.117,6.559,20.633,18.074,20.633
		c11.195,0,19.033-7.836,19.033-20.953v-47.66h19.352V417.9h-19.352v-13.117c-5.439,8-13.275,14.875-26.391,14.875
		C102.992,419.658,91.955,406.865,91.955,387.189z"/>
	<path fill="#414042" d="M187.434,375.994v-0.32c0-24.152,17.113-43.984,41.266-43.984c26.869,0,40.465,21.113,40.465,45.426
		c0,1.758-0.16,3.516-0.32,5.438h-62.057c2.078,13.754,11.836,21.434,24.311,21.434c9.438,0,16.154-3.52,22.871-10.078
		l11.357,10.078c-7.998,9.594-19.033,15.832-34.549,15.832C206.307,419.818,187.434,402.064,187.434,375.994z M249.971,369.756
		c-1.279-12.477-8.637-22.23-21.432-22.23c-11.836,0-20.152,9.117-21.912,22.23H249.971z"/>
	<path fill="#414042" d="M288.67,333.451h19.352v19.031c5.279-12.637,15.035-21.273,29.91-20.633v20.473h-1.119
		c-16.955,0-28.791,11.035-28.791,33.43V417.9H288.67V333.451z"/>
	<path fill="#414042" d="M358.719,394.549v-44.465h-10.717v-16.633h10.717V310.26h19.354v23.191h22.711v16.633h-22.711v41.426
		c0,7.516,3.838,10.555,10.396,10.555c4.318,0,8.156-0.961,11.994-2.879v15.836c-4.797,2.719-10.236,4.316-17.434,4.316
		C368.795,419.338,358.719,413.1,358.719,394.549z"/>
	<path fill="#414042" d="M420.291,301.143h19.352v45.422c5.439-7.996,13.275-14.875,26.391-14.875
		c19.033,0,30.07,12.797,30.07,32.469V417.9H476.75v-47.984c0-13.113-6.557-20.633-18.074-20.633
		c-11.195,0-19.033,7.84-19.033,20.953V417.9h-19.352V301.143z"/>
	<path fill="#414042" d="M518.168,395.986h21.271V417.9h-21.271V395.986z"/>
	<path fill="#414042" d="M562.787,302.1h20.793v18.395h-20.793V302.1z M563.588,333.451h19.354V417.9h-19.354V333.451z"/>
	<path fill="#414042" d="M603.568,376.154v-0.32c0-24.152,19.193-44.145,45.104-44.145s44.943,19.676,44.943,43.824v0.32
		c0,23.992-19.193,43.984-45.264,43.984C622.602,419.818,603.568,400.146,603.568,376.154z M674.264,376.154v-0.32
		c0-14.875-10.717-27.191-25.912-27.191c-15.514,0-25.43,12.156-25.43,26.871v0.32c0,14.715,10.715,27.191,25.75,27.191
		C664.346,403.025,674.264,390.709,674.264,376.154z"/>
</g>
</svg>
