<?xml version="1.0" encoding="utf-8"?>
<!-- Generator: Adobe Illustrator 16.0.0, SVG Export Plug-In . SVG Version: 6.00 Build 0)  -->
<!DOCTYPE svg PUBLIC "-//W3C//DTD SVG 1.1//EN" "http://www.w3.org/Graphics/SVG/1.1/DTD/svg11.dtd">
<svg version="1.1" id="Layer_1" xmlns="http://www.w3.org/2000/svg" xmlns:xlink="http://www.w3.org/1999/xlink" x="0px" y="0px"
	 width="720px" height="720px" viewBox="0 0 720 720" enable-background="new 0 0 720 720" xml:space="preserve">
<g>
	<g>
		<path fill="#414042" d="M230.664,445.603h-6.604v-9.957h6.604v-3.746c0-5.817,1.479-10.155,4.24-12.916
			c2.76-2.76,6.605-4.141,11.731-4.141c4.142,0,7,0.592,9.663,1.381v10.057c-2.367-0.789-4.438-1.283-7-1.283
			c-4.536,0-6.9,2.465-6.9,7.887v2.859H256.2v9.859h-13.604v41.803h-11.932V445.603z"/>
		<path fill="#414042" d="M264.479,468.476v-33.125h11.928v29.576c0,8.084,4.043,12.719,11.142,12.719
			c6.901,0,11.733-4.832,11.733-12.916v-29.379h11.929v52.055h-11.929v-8.084c-3.354,4.93-8.185,9.169-16.268,9.169
			C271.28,488.49,264.479,480.603,264.479,468.476z"/>
		<path fill="#414042" d="M323.331,461.575v-0.197c0-14.889,10.549-27.113,25.437-27.113c16.563,0,24.943,13.016,24.943,28
			c0,1.085-0.1,2.168-0.198,3.352h-38.251c1.281,8.479,7.296,13.213,14.984,13.213c5.817,0,9.959-2.17,14.098-6.213l7.002,6.213
			c-4.932,5.914-11.733,9.76-21.297,9.76C334.966,488.589,323.331,477.646,323.331,461.575z M361.881,457.729
			c-0.79-7.69-5.324-13.704-13.212-13.704c-7.296,0-12.423,5.62-13.506,13.704H361.881z"/>
		<path fill="#414042" d="M385.735,435.351h11.929v11.731c3.253-7.789,9.268-13.112,18.437-12.718v12.619h-0.69
			c-10.451,0-17.746,6.803-17.746,20.605v19.816h-11.929V435.351z"/>
		<path fill="#414042" d="M428.912,473.011v-27.408h-6.604v-10.252h6.604v-14.296h11.932v14.296h13.999v10.252h-13.999v25.535
			c0,4.635,2.364,6.508,6.407,6.508c2.663,0,5.028-0.593,7.395-1.775v9.761c-2.957,1.676-6.312,2.661-10.746,2.661
			C435.125,488.292,428.912,484.447,428.912,473.011z"/>
		<path fill="#414042" d="M466.867,415.435h11.93v28c3.352-4.93,8.182-9.17,16.268-9.17c11.73,0,18.535,7.888,18.535,20.015v33.126
			h-11.932v-29.576c0-8.085-4.04-12.719-11.141-12.719c-6.9,0-11.73,4.831-11.73,12.916v29.379h-11.93V415.435z"/>
		<path fill="#009580" d="M527.199,473.898h13.113v13.507h-13.113V473.898z"/>
		<path fill="#009580" d="M554.703,416.026h12.818v11.338h-12.818V416.026z M555.197,435.351h11.929v52.055h-11.929V435.351z"/>
		<path fill="#009580" d="M579.842,461.674v-0.197c0-14.888,11.83-27.212,27.801-27.212c15.972,0,27.705,12.128,27.705,27.014v0.198
			c0,14.788-11.832,27.112-27.902,27.112C591.572,488.589,579.842,476.462,579.842,461.674z M623.419,461.674v-0.197
			c0-9.169-6.606-16.761-15.974-16.761c-9.562,0-15.675,7.492-15.675,16.563v0.198c0,9.07,6.604,16.76,15.872,16.76
			C617.306,478.236,623.419,470.646,623.419,461.674z"/>
	</g>
	<g>
		<path fill="#009580" d="M320.123,345.802c1.662-2.242,3.138-4.631,4.354-7.145c2.064-4.273,3.389-8.994,3.277-13.768
			c-0.192-8.221-4.842-14.613-11.878-18.5c-16.005-8.832-38.075-6.927-54.085,0.785c3.063-2.1,5.99-4.396,8.755-6.874
			c12.668-11.368,26.041-30.948,19.491-48.805c-7.991-21.794-37.158-18.612-54.154-11.376
			c-3.234,54.879-12.924,94.688-20.869,119.139c0.058-0.055,0.115-0.106,0.176-0.16c-0.457,1.939-0.809,3.891-1.276,5.593
			c-6.925,25.28-15.993,50.13-26.879,73.976c-10.053,22.021-21.699,42.959-34.632,63.402c1.984-2.497,3.971-4.992,5.954-7.492
			c16.604-20.885,31.442-43.559,43.997-67.102c11.557-21.675,22.383-43.852,30.62-67.031c0.13-0.37,0.224-0.74,0.304-1.107
			c9.634,10.934,20.842,20.502,33.488,27.781c7.758,4.468,16.031,8.135,24.762,10.199c10.831,2.561,22.177-1.139,26.547-11.977
			c4.317-10.703,1.37-23.346-3.409-33.36C316.654,350.774,318.654,347.792,320.123,345.802z"/>
		<g>
			<g>
				<rect x="203.596" y="240.929" opacity="0.7" fill="#009580" width="25.851" height="25.852"/>
				<rect x="193.232" y="273.751" opacity="0.7" fill="#009580" width="33.342" height="33.342"/>
				<rect x="162.669" y="275.926" opacity="0.7" fill="#009580" width="27.558" height="27.557"/>
				<rect x="169.797" y="348.214" fill="#009580" width="20.165" height="20.166"/>
				<rect x="92.438" y="318.08" opacity="0.7" fill="#009580" width="20.165" height="20.166"/>
				<rect x="139.14" y="286.374" opacity="0.5" fill="#009580" width="18.854" height="18.854"/>
				<rect x="193.571" y="341.446" opacity="0.7" fill="#009580" width="16.853" height="16.852"/>
				<rect x="84.652" y="360.601" fill="#009580" width="15.566" height="15.564"/>
				<rect x="204.253" y="223.258" fill="#009580" width="14.132" height="14.133"/>
				<rect x="167.952" y="376.101" opacity="0.7" fill="#009580" width="14.813" height="14.811"/>
				<rect x="120.775" y="286.374" opacity="0.7" fill="#009580" width="14.811" height="14.811"/>
				<rect x="140.305" y="387.39" fill="#009580" width="16.312" height="16.309"/>
				<rect x="108.408" y="348.214" opacity="0.7" fill="#009580" width="20.166" height="20.166"/>
				<rect x="193.571" y="310.481" fill="#009580" width="25.844" height="25.844"/>
				<rect x="108.801" y="378.788" opacity="0.7" fill="#009580" width="19.381" height="19.38"/>
				<rect x="123.621" y="310.401" fill="#009580" width="31.042" height="31.045"/>
				<rect x="156.611" y="308.663" opacity="0.7" fill="#009580" width="31.484" height="31.488"/>
				<rect x="131.49" y="345.744" opacity="0.5" fill="#009580" width="33.043" height="33.044"/>
				<rect x="170.596" y="240.743" fill="#009580" width="30.49" height="30.491"/>
				<rect x="181.272" y="217.931" opacity="0.7" fill="#009580" width="17.904" height="17.906"/>
			</g>
		</g>
	</g>
</g>
</svg>
