<?xml version="1.0" encoding="utf-8"?>
<!-- Generator: Adobe Illustrator 16.0.0, SVG Export Plug-In . SVG Version: 6.00 Build 0)  -->
<!DOCTYPE svg PUBLIC "-//W3C//DTD SVG 1.1//EN" "http://www.w3.org/Graphics/SVG/1.1/DTD/svg11.dtd">
<svg version="1.1" id="Layer_1" xmlns="http://www.w3.org/2000/svg" xmlns:xlink="http://www.w3.org/1999/xlink" x="0px" y="0px"
	 width="720px" height="720px" viewBox="0 0 720 720" enable-background="new 0 0 720 720" xml:space="preserve">
<g>
	<path fill="#009580" d="M544.807,336.967c2.695-3.637,5.09-7.512,7.063-11.59c3.348-6.934,5.496-14.592,5.316-22.336
		c-0.313-13.336-7.854-23.707-19.27-30.012c-25.965-14.328-61.768-11.238-87.742,1.273c4.969-3.406,9.719-7.133,14.203-11.152
		c20.553-18.443,42.246-50.207,31.621-79.176c-12.963-35.355-60.281-30.195-87.855-18.455
		c-5.246,89.029-20.965,153.611-33.855,193.279c0.096-0.09,0.189-0.174,0.285-0.262c-0.742,3.148-1.311,6.313-2.07,9.074
		c-11.232,41.012-25.945,81.326-43.604,120.01c-16.311,35.725-35.203,69.693-56.186,102.857c3.219-4.051,6.441-8.1,9.66-12.154
		c26.939-33.881,51.008-70.664,71.375-108.857c18.752-35.164,36.314-71.141,49.676-108.746c0.211-0.6,0.365-1.199,0.492-1.797
		c15.631,17.738,33.814,33.262,54.328,45.07c12.588,7.248,26.008,13.197,40.172,16.547c17.572,4.152,35.979-1.848,43.068-19.43
		c7.004-17.363,2.221-37.875-5.531-54.121C539.18,345.033,542.424,340.195,544.807,336.967z"/>
	<g>
		<g>
			<rect x="355.764" y="166.832" opacity="0.7" fill="#009580" width="41.938" height="41.938"/>
			<rect x="338.951" y="220.08" opacity="0.7" fill="#009580" width="54.092" height="54.09"/>
			<rect x="289.369" y="223.607" opacity="0.7" fill="#009580" width="44.707" height="44.705"/>
			<rect x="300.932" y="340.881" fill="#009580" width="32.715" height="32.715"/>
			<rect x="175.432" y="291.994" opacity="0.7" fill="#009580" width="32.715" height="32.715"/>
			<rect x="251.197" y="240.557" opacity="0.5" fill="#009580" width="30.588" height="30.586"/>
			<rect x="339.502" y="329.9" opacity="0.7" fill="#009580" width="27.34" height="27.338"/>
			<rect x="162.805" y="360.975" fill="#009580" width="25.254" height="25.25"/>
			<rect x="356.83" y="138.164" fill="#009580" width="22.928" height="22.928"/>
			<rect x="297.941" y="386.119" opacity="0.7" fill="#009580" width="24.029" height="24.027"/>
			<rect x="221.404" y="240.557" opacity="0.7" fill="#009580" width="24.029" height="24.027"/>
			<rect x="253.088" y="404.436" fill="#009580" width="26.461" height="26.457"/>
			<rect x="201.344" y="340.881" opacity="0.7" fill="#009580" width="32.713" height="32.715"/>
			<rect x="339.502" y="279.666" fill="#009580" width="41.926" height="41.926"/>
			<rect x="201.98" y="390.48" opacity="0.7" fill="#009580" width="31.439" height="31.439"/>
			<rect x="226.021" y="279.537" fill="#009580" width="50.359" height="50.363"/>
			<rect x="279.541" y="276.717" opacity="0.7" fill="#009580" width="51.078" height="51.082"/>
			<rect x="238.789" y="336.873" opacity="0.5" fill="#009580" width="53.604" height="53.607"/>
			<rect x="302.23" y="166.531" fill="#009580" width="49.463" height="49.465"/>
			<rect x="319.551" y="129.521" opacity="0.7" fill="#009580" width="29.045" height="29.051"/>
		</g>
	</g>
</g>
</svg>
